<svg width="17" height="10" viewBox="0 0 17 10" fill="none" xmlns="http://www.w3.org/2000/svg">
<path d="M8.61194 8.99998C8.33731 9.00055 8.07117 8.89883 7.8597 8.71248L0.807465 2.46248C0.567434 2.25031 0.416487 1.94542 0.387832 1.61488C0.359177 1.28435 0.45516 0.955249 0.654666 0.699978C0.854172 0.444707 1.14086 0.284177 1.45166 0.253702C1.76246 0.223228 2.07191 0.325305 2.31194 0.537478L8.61194 6.13748L14.9119 0.737479C15.0322 0.633646 15.1705 0.556107 15.319 0.509317C15.4675 0.462527 15.6232 0.44741 15.7772 0.464834C15.9312 0.482258 16.0805 0.531879 16.2164 0.610846C16.3523 0.689814 16.4722 0.79657 16.5692 0.924978C16.6769 1.05351 16.7584 1.20429 16.8087 1.36788C16.859 1.53147 16.877 1.70435 16.8615 1.87568C16.8461 2.04701 16.7975 2.2131 16.7189 2.36354C16.6403 2.51399 16.5333 2.64555 16.4047 2.74998L9.35243 8.78748C9.13488 8.94437 8.87417 9.01919 8.61194 8.99998Z" fill="#231F20"/>
</svg>
