<svg width="29" height="32" viewBox="0 0 29 32" fill="none" xmlns="http://www.w3.org/2000/svg">
<path d="M14.544 11.0005C14.8186 10.9962 15.0861 11.0943 15.3001 11.2777L22.4366 17.4313C22.6795 17.6402 22.8345 17.943 22.8677 18.2732C22.9008 18.6033 22.8093 18.9336 22.6133 19.1916C22.4173 19.4496 22.1328 19.614 21.8224 19.6487C21.5121 19.6834 21.2013 19.5855 20.9584 19.3766L14.5829 13.8627L8.35682 19.3478C8.23801 19.4532 8.10074 19.5326 7.95289 19.5814C7.80505 19.6303 7.64954 19.6475 7.49531 19.6322C7.34108 19.6168 7.19117 19.5692 7.05419 19.4921C6.91722 19.415 6.79588 19.3099 6.69715 19.1828C6.58777 19.0558 6.50421 18.9061 6.45169 18.7432C6.39918 18.5803 6.37884 18.4077 6.39196 18.2362C6.40508 18.0646 6.45137 17.8979 6.52793 17.7464C6.60449 17.5949 6.70968 17.4619 6.8369 17.3557L13.8065 11.223C14.0219 11.0632 14.2815 10.9848 14.544 11.0005Z" fill="#231F20"/>
</svg>
