<svg width="29" height="30" viewBox="0 0 29 30" fill="none" xmlns="http://www.w3.org/2000/svg">
<path d="M14.6119 20C14.3373 20.0005 14.0712 19.8988 13.8597 19.7125L6.80745 13.4625C6.56742 13.2503 6.41647 12.9454 6.38782 12.6149C6.35916 12.2844 6.45514 11.9552 6.65465 11.7C6.85416 11.4447 7.14084 11.2842 7.45164 11.2537C7.76244 11.2232 8.0719 11.3253 8.31193 11.5375L14.6119 17.1375L20.9119 11.7375C21.0322 11.6336 21.1705 11.5561 21.319 11.5093C21.4675 11.4625 21.6232 11.4474 21.7772 11.4648C21.9312 11.4823 22.0805 11.5319 22.2164 11.6108C22.3523 11.6898 22.4722 11.7966 22.5692 11.925C22.6768 12.0535 22.7584 12.2043 22.8087 12.3679C22.859 12.5315 22.8769 12.7043 22.8615 12.8757C22.8461 13.047 22.7975 13.2131 22.7189 13.3635C22.6403 13.514 22.5333 13.6455 22.4046 13.75L15.3524 19.7875C15.1349 19.9444 14.8742 20.0192 14.6119 20Z" fill="#231F20"/>
</svg>
