<svg width="21" height="21" viewBox="0 0 21 21" fill="none" xmlns="http://www.w3.org/2000/svg">
<path d="M17.25 0.375H3.75C2.85489 0.375 1.99645 0.730579 1.36351 1.36351C0.730579 1.99645 0.375 2.85489 0.375 3.75V17.25C0.375 18.1451 0.730579 19.0036 1.36351 19.6365C1.99645 20.2694 2.85489 20.625 3.75 20.625H17.25C18.1451 20.625 19.0036 20.2694 19.6365 19.6365C20.2694 19.0036 20.625 18.1451 20.625 17.25V3.75C20.625 2.85489 20.2694 1.99645 19.6365 1.36351C19.0036 0.730579 18.1451 0.375 17.25 0.375ZM10.5 3.75C10.7225 3.75 10.94 3.81598 11.125 3.9396C11.31 4.06321 11.4542 4.23891 11.5394 4.44448C11.6245 4.65005 11.6468 4.87625 11.6034 5.09448C11.56 5.31271 11.4528 5.51316 11.2955 5.67049C11.1382 5.82783 10.9377 5.93498 10.7195 5.97838C10.5012 6.02179 10.275 5.99951 10.0695 5.91436C9.86391 5.82922 9.68821 5.68502 9.5646 5.50002C9.44098 5.31501 9.375 5.0975 9.375 4.875C9.375 4.57663 9.49353 4.29048 9.70451 4.07951C9.91548 3.86853 10.2016 3.75 10.5 3.75V3.75ZM6 3.75C6.2225 3.75 6.44001 3.81598 6.62502 3.9396C6.81002 4.06321 6.95422 4.23891 7.03936 4.44448C7.12451 4.65005 7.14679 4.87625 7.10338 5.09448C7.05998 5.31271 6.95283 5.51316 6.79549 5.67049C6.63816 5.82783 6.43771 5.93498 6.21948 5.97838C6.00125 6.02179 5.77505 5.99951 5.56948 5.91436C5.36391 5.82922 5.18821 5.68502 5.0646 5.50002C4.94098 5.31501 4.875 5.0975 4.875 4.875C4.875 4.57663 4.99353 4.29048 5.20451 4.07951C5.41548 3.86853 5.70163 3.75 6 3.75V3.75ZM18.375 17.25C18.375 17.5484 18.2565 17.8345 18.0455 18.0455C17.8345 18.2565 17.5484 18.375 17.25 18.375H3.75C3.45163 18.375 3.16548 18.2565 2.95451 18.0455C2.74353 17.8345 2.625 17.5484 2.625 17.25V9.375H18.375V17.25Z" fill="#231F20"/>
</svg>
