<svg width="28" height="25" viewBox="0 0 28 25" fill="none" xmlns="http://www.w3.org/2000/svg">
<path d="M23.0005 8.08598C22.1631 8.08834 21.3469 8.34965 20.6638 8.83409C19.9808 9.31854 19.4643 10.0024 19.1851 10.7919H1.35297C0.994141 10.7919 0.650007 10.9345 0.396276 11.1882C0.142545 11.4419 0 11.7861 0 12.1449C0 12.5037 0.142545 12.8479 0.396276 13.1016C0.650007 13.3553 0.994141 13.4979 1.35297 13.4979H19.1851C19.4333 14.1999 19.8699 14.8201 20.447 15.2907C21.0241 15.7612 21.7195 16.0639 22.4571 16.1657C23.1947 16.2675 23.9461 16.1644 24.6291 15.8677C25.3121 15.571 25.9002 15.0922 26.3293 14.4836C26.7583 13.8751 27.0117 13.1602 27.0617 12.4173C27.1116 11.6743 26.9563 10.932 26.6126 10.2714C26.2689 9.61086 25.7501 9.05758 25.113 8.67213C24.476 8.28667 23.7451 8.08389 23.0005 8.08598ZM23.0005 13.4979C22.7329 13.4979 22.4713 13.4185 22.2488 13.2699C22.0263 13.1212 21.8529 12.9099 21.7505 12.6627C21.6481 12.4154 21.6213 12.1434 21.6735 11.8809C21.7257 11.6185 21.8546 11.3774 22.0438 11.1882C22.233 10.999 22.4741 10.8701 22.7366 10.8179C22.999 10.7657 23.271 10.7925 23.5183 10.8949C23.7655 10.9973 23.9768 11.1707 24.1255 11.3932C24.2741 11.6157 24.3535 11.8773 24.3535 12.1449C24.3535 12.5037 24.2109 12.8479 23.9572 13.1016C23.7035 13.3553 23.3593 13.4979 23.0005 13.4979Z" fill="#231F20"/>
<path d="M1.35297 5.38006H2.94948C3.23388 6.16364 3.75264 6.84064 4.43526 7.31908C5.11789 7.79752 5.93127 8.05418 6.76486 8.05418C7.59845 8.05418 8.41183 7.79752 9.09445 7.31908C9.77707 6.84064 10.2958 6.16364 10.5802 5.38006H25.7065C26.0653 5.38006 26.4094 5.23751 26.6632 4.98378C26.9169 4.73005 27.0594 4.38592 27.0594 4.02709C27.0594 3.66826 26.9169 3.32412 26.6632 3.07039C26.4094 2.81666 26.0653 2.67412 25.7065 2.67412H10.5802C10.2958 1.89054 9.77707 1.21353 9.09445 0.735094C8.41183 0.256658 7.59845 0 6.76486 0C5.93127 0 5.11789 0.256658 4.43526 0.735094C3.75264 1.21353 3.23388 1.89054 2.94948 2.67412H1.35297C0.994141 2.67412 0.650007 2.81666 0.396276 3.07039C0.142545 3.32412 0 3.66826 0 4.02709C0 4.38592 0.142545 4.73005 0.396276 4.98378C0.650007 5.23751 0.994141 5.38006 1.35297 5.38006ZM6.76486 2.67412C7.03245 2.67412 7.29403 2.75347 7.51653 2.90213C7.73902 3.0508 7.91244 3.2621 8.01484 3.50933C8.11724 3.75655 8.14404 4.02859 8.09183 4.29104C8.03963 4.55349 7.91077 4.79457 7.72155 4.98378C7.53234 5.173 7.29126 5.30186 7.02881 5.35406C6.76636 5.40627 6.49432 5.37947 6.2471 5.27707C5.99987 5.17467 5.78857 5.00125 5.6399 4.77876C5.49124 4.55626 5.41189 4.29468 5.41189 4.02709C5.41189 3.66826 5.55443 3.32412 5.80816 3.07039C6.06189 2.81666 6.40603 2.67412 6.76486 2.67412Z" fill="#231F20"/>
<path d="M25.7065 18.9098H15.9921C15.7077 18.1262 15.189 17.4492 14.5063 16.9708C13.8237 16.4923 13.0103 16.2357 12.1767 16.2357C11.3432 16.2357 10.5298 16.4923 9.84715 16.9708C9.16453 17.4492 8.64576 18.1262 8.36136 18.9098H1.35297C0.994141 18.9098 0.650007 19.0523 0.396276 19.306C0.142545 19.5598 0 19.9039 0 20.2627C0 20.6216 0.142545 20.9657 0.396276 21.2194C0.650007 21.4732 0.994141 21.6157 1.35297 21.6157H8.36136C8.64576 22.3993 9.16453 23.0763 9.84715 23.5547C10.5298 24.0332 11.3432 24.2898 12.1767 24.2898C13.0103 24.2898 13.8237 24.0332 14.5063 23.5547C15.189 23.0763 15.7077 22.3993 15.9921 21.6157H25.7065C26.0653 21.6157 26.4094 21.4732 26.6632 21.2194C26.9169 20.9657 27.0594 20.6216 27.0594 20.2627C27.0594 19.9039 26.9169 19.5598 26.6632 19.306C26.4094 19.0523 26.0653 18.9098 25.7065 18.9098ZM12.1767 21.6157C11.9092 21.6157 11.6476 21.5364 11.4251 21.3877C11.2026 21.239 11.0292 21.0277 10.9268 20.7805C10.8244 20.5333 10.7976 20.2612 10.8498 19.9988C10.902 19.7363 11.0308 19.4953 11.22 19.306C11.4093 19.1168 11.6503 18.988 11.9128 18.9358C12.1752 18.8836 12.4473 18.9104 12.6945 19.0128C12.9417 19.1152 13.153 19.2886 13.3017 19.5111C13.4504 19.7336 13.5297 19.9952 13.5297 20.2627C13.5297 20.6216 13.3872 20.9657 13.1334 21.2194C12.8797 21.4732 12.5356 21.6157 12.1767 21.6157Z" fill="#231F20"/>
</svg>
