<svg width="37" height="37" viewBox="0 0 37 37" fill="none" xmlns="http://www.w3.org/2000/svg">
<path d="M18.5 0.583344C14.9564 0.583344 11.4924 1.63414 8.54603 3.60285C5.59965 5.57156 3.30322 8.36976 1.94715 11.6436C0.591084 14.9174 0.236274 18.5199 0.927592 21.9954C1.61891 25.4709 3.32531 28.6633 5.831 31.169C8.33669 33.6747 11.5291 35.3811 15.0046 36.0724C18.4801 36.7637 22.0826 36.4089 25.3564 35.0529C28.6303 33.6968 31.4284 31.4004 33.3972 28.454C35.3659 25.5076 36.4167 22.0436 36.4167 18.5C36.4167 16.1472 35.9532 13.8173 35.0528 11.6436C34.1524 9.46985 32.8327 7.49473 31.169 5.83101C29.5053 4.1673 27.5302 2.84757 25.3564 1.94717C23.1827 1.04677 20.8528 0.583344 18.5 0.583344ZM18.5 32.8333C15.6651 32.8333 12.8939 31.9927 10.5368 30.4177C8.17972 28.8428 6.34258 26.6042 5.25772 23.9851C4.17287 21.3661 3.88902 18.4841 4.44207 15.7037C4.99513 12.9233 6.36025 10.3694 8.3648 8.36481C10.3694 6.36026 12.9233 4.99514 15.7037 4.44209C18.4841 3.88903 21.366 4.17288 23.9851 5.25774C26.6042 6.34259 28.8428 8.17973 30.4177 10.5368C31.9927 12.8939 32.8333 15.6651 32.8333 18.5C32.8333 22.3014 31.3232 25.9472 28.6352 28.6352C25.9472 31.3232 22.3014 32.8333 18.5 32.8333Z" fill="white"/>
<path d="M19.1092 10.3479C18.6702 9.94337 18.1219 9.67674 17.5326 9.58118C16.9433 9.48562 16.3389 9.56534 15.7946 9.81044C15.2661 10.0242 14.8134 10.3907 14.4943 10.863C14.1751 11.3353 14.0041 11.8921 14.0029 12.4621V24.5379C14.0041 25.108 14.1751 25.6647 14.4943 26.1371C14.8134 26.6094 15.2661 26.9758 15.7946 27.1896C16.183 27.3658 16.6044 27.4574 17.0308 27.4584C17.7993 27.455 18.5394 27.1678 19.1092 26.6521L25.6667 20.6142C25.9599 20.3456 26.1941 20.019 26.3544 19.655C26.5146 19.291 26.5973 18.8977 26.5973 18.5C26.5973 18.1024 26.5146 17.709 26.3544 17.3451C26.1941 16.9811 25.9599 16.6544 25.6667 16.3859L19.1092 10.3479ZM17.6042 23.1584V13.8417L22.6387 18.5L17.6042 23.1584Z" fill="white"/>
</svg>
