<svg width="43" height="43" viewBox="0 0 43 43" fill="none" xmlns="http://www.w3.org/2000/svg">
<path d="M21.5 3.58334C17.9564 3.58334 14.4924 4.63414 11.546 6.60285C8.59965 8.57156 6.30322 11.3698 4.94715 14.6436C3.59108 17.9174 3.23627 21.5199 3.92759 24.9954C4.61891 28.4709 6.32531 31.6633 8.831 34.169C11.3367 36.6747 14.5291 38.3811 18.0046 39.0724C21.4801 39.7637 25.0826 39.4089 28.3564 38.0529C31.6303 36.6968 34.4284 34.4004 36.3972 31.454C38.3659 28.5076 39.4167 25.0436 39.4167 21.5C39.4167 19.1472 38.9532 16.8173 38.0528 14.6436C37.1524 12.4698 35.8327 10.4947 34.169 8.83101C32.5053 7.1673 30.5302 5.84757 28.3564 4.94717C26.1827 4.04677 23.8528 3.58334 21.5 3.58334ZM21.5 35.8333C18.6651 35.8333 15.8939 34.9927 13.5368 33.4177C11.1797 31.8428 9.34258 29.6042 8.25772 26.9851C7.17287 24.3661 6.88902 21.4841 7.44207 18.7037C7.99513 15.9233 9.36025 13.3694 11.3648 11.3648C13.3694 9.36026 15.9233 7.99514 18.7037 7.44209C21.4841 6.88903 24.366 7.17288 26.9851 8.25774C29.6042 9.34259 31.8428 11.1797 33.4177 13.5368C34.9927 15.8939 35.8333 18.6651 35.8333 21.5C35.8333 25.3014 34.3232 28.9472 31.6352 31.6352C28.9472 34.3232 25.3014 35.8333 21.5 35.8333Z" fill="white"/>
<path d="M22.1092 13.3479C21.6702 12.9434 21.1219 12.6767 20.5326 12.5812C19.9433 12.4856 19.3389 12.5653 18.7946 12.8104C18.2661 13.0242 17.8134 13.3907 17.4943 13.863C17.1751 14.3353 17.0041 14.8921 17.0029 15.4621V27.5379C17.0041 28.108 17.1751 28.6647 17.4943 29.1371C17.8134 29.6094 18.2661 29.9758 18.7946 30.1896C19.183 30.3658 19.6044 30.4574 20.0308 30.4584C20.7993 30.455 21.5394 30.1678 22.1092 29.6521L28.6667 23.6142C28.9599 23.3456 29.1941 23.019 29.3544 22.655C29.5146 22.291 29.5973 21.8977 29.5973 21.5C29.5973 21.1024 29.5146 20.709 29.3544 20.3451C29.1941 19.9811 28.9599 19.6544 28.6667 19.3859L22.1092 13.3479ZM20.6042 26.1584V16.8417L25.6387 21.5L20.6042 26.1584Z" fill="white"/>
</svg>
